<svg version="1.1" viewBox="0.0 0.0 155.0 155.0" fill="none" stroke="none" stroke-linecap="square" stroke-miterlimit="10" xmlns:xlink="http://www.w3.org/1999/xlink" xmlns="http://www.w3.org/2000/svg"><clipPath id="p.0"><path d="m0 0l155.0 0l0 155.0l-155.0 0l0 -155.0z" clip-rule="nonzero"/></clipPath><g clip-path="url(#p.0)"><path fill="#000000" fill-opacity="0.0" d="m0 0l155.0 0l0 155.0l-155.0 0z" fill-rule="evenodd"/><path fill="#000000" fill-opacity="0.0" d="m6.633858 78.08319l0 0c0 -39.138287 31.727852 -70.866135 70.86614 -70.866135l0 0c18.794868 0 36.819946 7.466233 50.109932 20.756212c13.28997 13.28998 20.756203 31.315062 20.756203 50.109924l0 0c0 39.13829 -31.727844 70.86615 -70.866135 70.86615l0 0c-39.13829 0 -70.86614 -31.72786 -70.86614 -70.86615z" fill-rule="evenodd"/><path stroke="#ffffff" stroke-width="8.0" stroke-linejoin="round" stroke-linecap="butt" d="m6.633858 78.08319l0 0c0 -39.138287 31.727852 -70.866135 70.86614 -70.866135l0 0c18.794868 0 36.819946 7.466233 50.109932 20.756212c13.28997 13.28998 20.756203 31.315062 20.756203 50.109924l0 0c0 39.13829 -31.727844 70.86615 -70.866135 70.86615l0 0c-39.13829 0 -70.86614 -31.72786 -70.86614 -70.86615z" fill-rule="evenodd"/><path fill="#000000" fill-opacity="0.0" d="m77.5 7.217053l0 141.73228" fill-rule="evenodd"/><path stroke="#ffffff" stroke-width="8.0" stroke-linejoin="round" stroke-linecap="butt" d="m77.5 7.217053l0 141.73228" fill-rule="evenodd"/><path fill="#000000" fill-opacity="0.0" d="m138.76675 42.704407l-122.64566 70.67716" fill-rule="evenodd"/><path stroke="#ffffff" stroke-width="8.0" stroke-linejoin="round" stroke-linecap="butt" d="m138.76675 42.704407l-122.64566 70.67716" fill-rule="evenodd"/><path fill="#000000" fill-opacity="0.0" d="m138.82433 113.51218l-122.67717 -70.83464" fill-rule="evenodd"/><path stroke="#ffffff" stroke-width="8.0" stroke-linejoin="round" stroke-linecap="butt" d="m138.82433 113.51218l-122.67717 -70.83464" fill-rule="evenodd"/><path fill="#000000" fill-opacity="0.0" d="m77.5 7.217053l61.32283 106.29921" fill-rule="evenodd"/><path stroke="#ffffff" stroke-width="8.0" stroke-linejoin="round" stroke-linecap="butt" d="m77.5 7.217053l61.32283 106.29921" fill-rule="evenodd"/><path fill="#000000" fill-opacity="0.0" d="m16.129921 113.516266l61.322838 -106.29921" fill-rule="evenodd"/><path stroke="#ffffff" stroke-width="8.0" stroke-linejoin="round" stroke-linecap="butt" d="m16.129921 113.516266l61.322838 -106.29921" fill-rule="evenodd"/><path fill="#000000" fill-opacity="0.0" d="m16.105862 112.02656l122.77165 -0.03149414" fill-rule="evenodd"/><path stroke="#ffffff" stroke-width="8.0" stroke-linejoin="round" stroke-linecap="butt" d="m16.105862 112.02656l122.77165 -0.03149414" fill-rule="evenodd"/><path fill="#000000" fill-opacity="0.0" d="m77.49912 147.78294l-61.32283 -106.29921" fill-rule="evenodd"/><path stroke="#ffffff" stroke-width="8.0" stroke-linejoin="round" stroke-linecap="butt" d="m77.49912 147.78294l-61.32283 -106.29921" fill-rule="evenodd"/><path fill="#000000" fill-opacity="0.0" d="m138.8692 41.483734l-61.32283 106.29921" fill-rule="evenodd"/><path stroke="#ffffff" stroke-width="8.0" stroke-linejoin="round" stroke-linecap="butt" d="m138.8692 41.483734l-61.32283 106.29921" fill-rule="evenodd"/><path fill="#000000" fill-opacity="0.0" d="m138.89326 42.973442l-122.7874 0.047245026" fill-rule="evenodd"/><path stroke="#ffffff" stroke-width="8.0" stroke-linejoin="round" stroke-linecap="butt" d="m138.89326 42.973442l-122.7874 0.047245026" fill-rule="evenodd"/></g></svg>
