<svg version="1.1" viewBox="0.0 0.0 170.0 170.0" fill="none" stroke="none" stroke-linecap="square" stroke-miterlimit="10" xmlns:xlink="http://www.w3.org/1999/xlink" xmlns="http://www.w3.org/2000/svg"><clipPath id="p.0"><path d="m0 0l170.0 0l0 170.0l-170.0 0l0 -170.0z" clip-rule="nonzero"/></clipPath><g clip-path="url(#p.0)"><path fill="#000000" fill-opacity="0.0" d="m0 0l170.0 0l0 170.0l-170.0 0z" fill-rule="evenodd"/><path fill="#000000" fill-opacity="0.0" d="m14.133859 85.58319l0 0c0 -39.138287 31.727852 -70.866135 70.86614 -70.866135l0 0c18.794868 0 36.819946 7.4662323 50.109924 20.756214c13.289978 13.289978 20.75621 31.315056 20.75621 50.109924l0 0c0 39.13829 -31.727844 70.86615 -70.866135 70.86615l0 0c-39.13829 0 -70.86614 -31.72786 -70.86614 -70.86615z" fill-rule="evenodd"/><path stroke="#ffffff" stroke-width="8.0" stroke-linejoin="round" stroke-linecap="butt" d="m14.133859 85.58319l0 0c0 -39.138287 31.727852 -70.866135 70.86614 -70.866135l0 0c18.794868 0 36.819946 7.4662323 50.109924 20.756214c13.289978 13.289978 20.75621 31.315056 20.75621 50.109924l0 0c0 39.13829 -31.727844 70.86615 -70.866135 70.86615l0 0c-39.13829 0 -70.86614 -31.72786 -70.86614 -70.86615z" fill-rule="evenodd"/><path fill="#000000" fill-opacity="0.0" d="m85.0 14.717052l0 141.73228" fill-rule="evenodd"/><path stroke="#ffffff" stroke-width="8.0" stroke-linejoin="round" stroke-linecap="butt" d="m85.0 14.717052l0 141.73228" fill-rule="evenodd"/><path fill="#000000" fill-opacity="0.0" d="m146.26675 50.204407l-122.64566 70.67716" fill-rule="evenodd"/><path stroke="#ffffff" stroke-width="8.0" stroke-linejoin="round" stroke-linecap="butt" d="m146.26675 50.204407l-122.64566 70.67716" fill-rule="evenodd"/><path fill="#000000" fill-opacity="0.0" d="m146.32433 121.01218l-122.67717 -70.83464" fill-rule="evenodd"/><path stroke="#ffffff" stroke-width="8.0" stroke-linejoin="round" stroke-linecap="butt" d="m146.32433 121.01218l-122.67717 -70.83464" fill-rule="evenodd"/><path fill="#000000" fill-opacity="0.0" d="m85.0 14.717052l61.32283 106.29921" fill-rule="evenodd"/><path stroke="#ffffff" stroke-width="8.0" stroke-linejoin="round" stroke-linecap="butt" d="m85.0 14.717052l61.32283 106.29921" fill-rule="evenodd"/><path fill="#000000" fill-opacity="0.0" d="m23.629921 121.016266l61.322838 -106.29921" fill-rule="evenodd"/><path stroke="#ffffff" stroke-width="8.0" stroke-linejoin="round" stroke-linecap="butt" d="m23.629921 121.016266l61.322838 -106.29921" fill-rule="evenodd"/><path fill="#000000" fill-opacity="0.0" d="m23.605862 119.52656l122.77165 -0.03149414" fill-rule="evenodd"/><path stroke="#ffffff" stroke-width="8.0" stroke-linejoin="round" stroke-linecap="butt" d="m23.605862 119.52656l122.77165 -0.03149414" fill-rule="evenodd"/><path fill="#000000" fill-opacity="0.0" d="m84.99912 155.28294l-61.32283 -106.29921" fill-rule="evenodd"/><path stroke="#ffffff" stroke-width="8.0" stroke-linejoin="round" stroke-linecap="butt" d="m84.99912 155.28294l-61.32283 -106.29921" fill-rule="evenodd"/><path fill="#000000" fill-opacity="0.0" d="m146.3692 48.983734l-61.32283 106.29921" fill-rule="evenodd"/><path stroke="#ffffff" stroke-width="8.0" stroke-linejoin="round" stroke-linecap="butt" d="m146.3692 48.983734l-61.32283 106.29921" fill-rule="evenodd"/><path fill="#000000" fill-opacity="0.0" d="m146.39326 50.473442l-122.7874 0.047245026" fill-rule="evenodd"/><path stroke="#ffffff" stroke-width="8.0" stroke-linejoin="round" stroke-linecap="butt" d="m146.39326 50.473442l-122.7874 0.047245026" fill-rule="evenodd"/></g></svg>
