<svg version="1.1" viewBox="0.0 0.0 100.0 100.0" fill="none" stroke="none" stroke-linecap="square" stroke-miterlimit="10" xmlns:xlink="http://www.w3.org/1999/xlink" xmlns="http://www.w3.org/2000/svg"><clipPath id="p.0"><path d="m0 0l100.0 0l0 100.0l-100.0 0l0 -100.0z" clip-rule="nonzero"/></clipPath><g clip-path="url(#p.0)"><path fill="#000000" fill-opacity="0.0" d="m0 0l100.0 0l0 100.0l-100.0 0z" fill-rule="evenodd"/><path fill="#000000" fill-opacity="0.0" d="m80.92264 13.36058l0 36.519684l0 0c0 20.169266 -13.854492 36.519684 -30.944881 36.519684c-17.090385 0 -30.944883 -16.350418 -30.944883 -36.519684l0 -36.519684z" fill-rule="evenodd"/><path stroke="#ffffff" stroke-width="8.0" stroke-linejoin="round" stroke-linecap="butt" d="m80.92264 13.36058l0 36.519684l0 0c0 20.169266 -13.854492 36.519684 -30.944881 36.519684c-17.090385 0 -30.944883 -16.350418 -30.944883 -36.519684l0 -36.519684z" fill-rule="evenodd"/><path fill="#000000" fill-opacity="0.0" d="m49.988255 14.683415l0 72.15748" fill-rule="evenodd"/><path stroke="#ffffff" stroke-width="8.0" stroke-linejoin="round" stroke-linecap="butt" d="m49.988255 14.683415l0 72.15748" fill-rule="evenodd"/><path fill="#000000" fill-opacity="0.0" d="m80.92264 48.65369l-65.291336 0" fill-rule="evenodd"/><path stroke="#ffffff" stroke-width="8.0" stroke-linejoin="round" stroke-linecap="butt" d="m80.92264 48.65369l-65.291336 0" fill-rule="evenodd"/><path fill="#000000" fill-opacity="0.0" d="m84.94951 13.185122l-69.921265 0" fill-rule="evenodd"/><path stroke="#ffffff" stroke-width="8.0" stroke-linejoin="round" stroke-linecap="butt" d="m84.94951 13.185122l-69.921265 0" fill-rule="evenodd"/><path fill="#000000" fill-opacity="0.0" d="m42.52894 84.95556l0 2.4230042l7.448818 2.2384186l7.448818 -2.2384186l0 -2.4230042z" fill-rule="evenodd"/><path stroke="#ffffff" stroke-width="4.0" stroke-linejoin="round" stroke-linecap="butt" d="m42.52894 84.95556l0 2.4230042l7.448818 2.2384186l7.448818 -2.2384186l0 -2.4230042z" fill-rule="evenodd"/></g></svg>
