<svg version="1.1" viewBox="0.0 0.0 100.0 100.0" fill="none" stroke="none" stroke-linecap="square" stroke-miterlimit="10" xmlns:xlink="http://www.w3.org/1999/xlink" xmlns="http://www.w3.org/2000/svg"><clipPath id="p.0"><path d="m0 0l100.0 0l0 100.0l-100.0 0l0 -100.0z" clip-rule="nonzero"/></clipPath><g clip-path="url(#p.0)"><path fill="#0000ff" d="m0 0l100.0 0l0 100.0l-100.0 0z" fill-rule="evenodd"/><path fill="#000000" fill-opacity="0.0" d="m50.0 2.7559056l0 94.48819" fill-rule="evenodd"/><path stroke="#ffffff" stroke-width="4.0" stroke-linejoin="round" stroke-linecap="butt" d="m50.0 2.7559056l0 94.48819" fill-rule="evenodd"/><path fill="#000000" fill-opacity="0.0" d="m90.844505 26.589272l-81.76378 47.11811" fill-rule="evenodd"/><path stroke="#ffffff" stroke-width="4.0" stroke-linejoin="round" stroke-linecap="butt" d="m90.844505 26.589272l-81.76378 47.11811" fill-rule="evenodd"/><path fill="#000000" fill-opacity="0.0" d="m91.40827 74.67011l-81.79527 -47.2126" fill-rule="evenodd"/><path stroke="#ffffff" stroke-width="4.0" stroke-linejoin="round" stroke-linecap="butt" d="m91.40827 74.67011l-81.79527 -47.2126" fill-rule="evenodd"/><path fill="#000000" fill-opacity="0.0" d="m50.0 2.7559056l40.88189 70.86614" fill-rule="evenodd"/><path stroke="#ffffff" stroke-width="4.0" stroke-linejoin="round" stroke-linecap="butt" d="m50.0 2.7559056l40.88189 70.86614" fill-rule="evenodd"/><path fill="#000000" fill-opacity="0.0" d="m9.086615 73.62205l40.88189 -70.86614" fill-rule="evenodd"/><path stroke="#ffffff" stroke-width="4.0" stroke-linejoin="round" stroke-linecap="butt" d="m9.086615 73.62205l40.88189 -70.86614" fill-rule="evenodd"/><path fill="#000000" fill-opacity="0.0" d="m9.070575 72.62891l81.85827 -0.03149414" fill-rule="evenodd"/><path stroke="#ffffff" stroke-width="4.0" stroke-linejoin="round" stroke-linecap="butt" d="m9.070575 72.62891l81.85827 -0.03149414" fill-rule="evenodd"/><path fill="#000000" fill-opacity="0.0" d="m49.999416 97.3989l-40.88189 -70.86614" fill-rule="evenodd"/><path stroke="#ffffff" stroke-width="4.0" stroke-linejoin="round" stroke-linecap="butt" d="m49.999416 97.3989l-40.88189 -70.86614" fill-rule="evenodd"/><path fill="#000000" fill-opacity="0.0" d="m90.9128 26.53276l-40.88189 70.86614" fill-rule="evenodd"/><path stroke="#ffffff" stroke-width="4.0" stroke-linejoin="round" stroke-linecap="butt" d="m90.9128 26.53276l-40.88189 70.86614" fill-rule="evenodd"/><path fill="#000000" fill-opacity="0.0" d="m90.92884 27.5259l-81.85827 0.031496048" fill-rule="evenodd"/><path stroke="#ffffff" stroke-width="4.0" stroke-linejoin="round" stroke-linecap="butt" d="m90.92884 27.5259l-81.85827 0.031496048" fill-rule="evenodd"/><path fill="#ffffff" d="m46.598427 3.5581365l0 0c0 -1.8786379 1.522934 -3.4015749 3.4015732 -3.4015749l0 0c0.902153 0 1.7673569 0.3583792 2.4052773 0.99629825c0.63791656 0.63791895 0.9962959 1.5031228 0.9962959 2.4052765l0 0c0 1.8786378 -1.522934 3.4015746 -3.4015732 3.4015746l0 0c-1.8786392 0 -3.4015732 -1.5229368 -3.4015732 -3.4015746z" fill-rule="evenodd"/><path fill="#ffffff" d="m46.598427 96.63694l0 0c0 -1.8786392 1.522934 -3.4015732 3.4015732 -3.4015732l0 0c0.902153 0 1.7673569 0.35838318 2.4052773 0.99629974c0.63791656 0.63791656 0.9962959 1.5031204 0.9962959 2.4052734l0 0c0 1.8786392 -1.522934 3.4015808 -3.4015732 3.4015808l0 0c-1.8786392 0 -3.4015732 -1.5229416 -3.4015732 -3.4015808z" fill-rule="evenodd"/><path fill="#ffffff" d="m87.004524 27.152231l0 0c0 -1.8786373 1.5229416 -3.401575 3.4015808 -3.401575l0 0c0.902153 0 1.7673569 0.35837936 2.4052734 0.99629784c0.63791656 0.6379185 0.99629974 1.5031223 0.99629974 2.4052773l0 0c0 1.8786373 -1.5229416 3.401575 -3.4015732 3.401575l0 0c-1.8786392 0 -3.4015808 -1.5229378 -3.4015808 -3.401575z" fill-rule="evenodd"/><path fill="#ffffff" d="m87.12382 72.987206l0 0c0 -1.8786392 1.5229416 -3.4015732 3.4015732 -3.4015732l0 0c0.902153 0 1.7673569 0.35837555 2.405281 0.9962921c0.63791656 0.6379242 0.99629974 1.503128 0.99629974 2.405281l0 0c0 1.8786392 -1.5229416 3.4015732 -3.4015808 3.4015732l0 0c-1.8786316 0 -3.4015732 -1.522934 -3.4015732 -3.4015732z" fill-rule="evenodd"/><path fill="#ffffff" d="m6.0734906 72.98615l0 0c0 -1.8786392 1.5229373 -3.4015732 3.4015746 -3.4015732l0 0c0.90215397 0 1.7673578 0.35838318 2.4052773 0.99629974c0.6379185 0.63791656 0.99629784 1.5031204 0.99629784 2.4052734l0 0c0 1.8786392 -1.5229368 3.4015808 -3.401575 3.4015808l0 0c-1.8786373 0 -3.4015746 -1.5229416 -3.4015746 -3.4015808z" fill-rule="evenodd"/><path fill="#ffffff" d="m6.01647 27.866142l0 0c0 -1.8786392 1.5229368 -3.401575 3.401575 -3.401575l0 0c0.902153 0 1.7673569 0.35837936 2.4052763 0.99629784c0.6379185 0.6379185 0.99629784 1.5031223 0.99629784 2.4052773l0 0c0 1.8786373 -1.5229368 3.401575 -3.4015741 3.401575l0 0c-1.8786383 0 -3.401575 -1.5229378 -3.401575 -3.401575z" fill-rule="evenodd"/></g></svg>  
