<svg version="1.1" viewBox="0.0 0.0 100.0 100.0" fill="none" stroke="none" stroke-linecap="square" stroke-miterlimit="10" xmlns:xlink="http://www.w3.org/1999/xlink" xmlns="http://www.w3.org/2000/svg"><clipPath id="p.0"><path d="m0 0l100.0 0l0 100.0l-100.0 0l0 -100.0z" clip-rule="nonzero"/></clipPath><g clip-path="url(#p.0)"><path fill="#000000" fill-opacity="0.0" d="m0 0l100.0 0l0 100.0l-100.0 0z" fill-rule="evenodd"/><path fill="#000000" fill-opacity="0.0" d="m2.7559056 50.0l0 0c0 -26.092194 21.151901 -47.244095 47.244095 -47.244095l0 0c12.529911 0 24.54663 4.9774885 33.406616 13.837475c8.859993 8.859987 13.837479 20.876709 13.837479 33.40662l0 0c0 26.092194 -21.151901 47.244095 -47.244095 47.244095l0 0c-26.092194 0 -47.244095 -21.151901 -47.244095 -47.244095z" fill-rule="evenodd"/><path stroke="#ffffff" stroke-width="4.0" stroke-linejoin="round" stroke-linecap="butt" d="m2.7559056 50.0l0 0c0 -26.092194 21.151901 -47.244095 47.244095 -47.244095l0 0c12.529911 0 24.54663 4.9774885 33.406616 13.837475c8.859993 8.859987 13.837479 20.876709 13.837479 33.40662l0 0c0 26.092194 -21.151901 47.244095 -47.244095 47.244095l0 0c-26.092194 0 -47.244095 -21.151901 -47.244095 -47.244095z" fill-rule="evenodd"/><path fill="#000000" fill-opacity="0.0" d="m50.0 2.7559056l0 94.48819" fill-rule="evenodd"/><path stroke="#ffffff" stroke-width="4.0" stroke-linejoin="round" stroke-linecap="butt" d="m50.0 2.7559056l0 94.48819" fill-rule="evenodd"/><path fill="#000000" fill-opacity="0.0" d="m90.844505 26.41414l-81.76378 47.11811" fill-rule="evenodd"/><path stroke="#ffffff" stroke-width="4.0" stroke-linejoin="round" stroke-linecap="butt" d="m90.844505 26.41414l-81.76378 47.11811" fill-rule="evenodd"/><path fill="#000000" fill-opacity="0.0" d="m90.88288 73.61932l-81.79527 -47.2126" fill-rule="evenodd"/><path stroke="#ffffff" stroke-width="4.0" stroke-linejoin="round" stroke-linecap="butt" d="m90.88288 73.61932l-81.79527 -47.2126" fill-rule="evenodd"/><path fill="#000000" fill-opacity="0.0" d="m50.0 2.7559056l40.88189 70.86614" fill-rule="evenodd"/><path stroke="#ffffff" stroke-width="4.0" stroke-linejoin="round" stroke-linecap="butt" d="m50.0 2.7559056l40.88189 70.86614" fill-rule="evenodd"/><path fill="#000000" fill-opacity="0.0" d="m9.086615 73.62205l40.88189 -70.86614" fill-rule="evenodd"/><path stroke="#ffffff" stroke-width="4.0" stroke-linejoin="round" stroke-linecap="butt" d="m9.086615 73.62205l40.88189 -70.86614" fill-rule="evenodd"/><path fill="#000000" fill-opacity="0.0" d="m9.070575 72.62891l81.85827 -0.03149414" fill-rule="evenodd"/><path stroke="#ffffff" stroke-width="4.0" stroke-linejoin="round" stroke-linecap="butt" d="m9.070575 72.62891l81.85827 -0.03149414" fill-rule="evenodd"/><path fill="#000000" fill-opacity="0.0" d="m49.999416 97.3989l-40.88189 -70.86614" fill-rule="evenodd"/><path stroke="#ffffff" stroke-width="4.0" stroke-linejoin="round" stroke-linecap="butt" d="m49.999416 97.3989l-40.88189 -70.86614" fill-rule="evenodd"/><path fill="#000000" fill-opacity="0.0" d="m90.9128 26.53276l-40.88189 70.86614" fill-rule="evenodd"/><path stroke="#ffffff" stroke-width="4.0" stroke-linejoin="round" stroke-linecap="butt" d="m90.9128 26.53276l-40.88189 70.86614" fill-rule="evenodd"/><path fill="#000000" fill-opacity="0.0" d="m90.92884 27.5259l-81.85827 0.031496048" fill-rule="evenodd"/><path stroke="#ffffff" stroke-width="4.0" stroke-linejoin="round" stroke-linecap="butt" d="m90.92884 27.5259l-81.85827 0.031496048" fill-rule="evenodd"/></g></svg>
