<svg version="1.1" viewBox="0.0 0.0 100.0 100.0" fill="none" stroke="none" stroke-linecap="square" stroke-miterlimit="10" xmlns:xlink="http://www.w3.org/1999/xlink" xmlns="http://www.w3.org/2000/svg"><clipPath id="p.0"><path d="m0 0l100.0 0l0 100.0l-100.0 0l0 -100.0z" clip-rule="nonzero"/></clipPath><g clip-path="url(#p.0)"><path fill="#000000" fill-opacity="0.0" d="m0 0l100.0 0l0 100.0l-100.0 0z" fill-rule="evenodd"/><path fill="#000000" fill-opacity="0.0" d="m50.0 0.86614174l0 0c27.13588 0 49.133858 21.997976 49.133858 49.133858l0 0c0 13.031109 -5.17659 25.528496 -14.390976 34.74288c-9.214386 9.214386 -21.711773 14.390976 -34.74288 14.390976l0 0c-27.135881 0 -49.133858 -21.997978 -49.133858 -49.133858l0 0c0 -27.135881 21.997976 -49.133858 49.133858 -49.133858z" fill-rule="evenodd"/><path fill="#000000" fill-opacity="0.0" d="m19.032873 80.11506l0 -36.519684l0 0c0 -20.169266 13.854498 -36.519688 30.944883 -36.519688c17.09039 0 30.944881 16.35042 30.944881 36.519688l0 36.519684z" fill-rule="evenodd"/><path stroke="#ffffff" stroke-width="8.0" stroke-linejoin="round" stroke-linecap="butt" d="m19.032873 80.11506l0 -36.519684l0 0c0 -20.169266 13.854498 -36.519688 30.944883 -36.519688c17.09039 0 30.944881 16.35042 30.944881 36.519688l0 36.519684z" fill-rule="evenodd"/><path fill="#000000" fill-opacity="0.0" d="m49.988255 78.79222l0 -72.15748" fill-rule="evenodd"/><path stroke="#ffffff" stroke-width="8.0" stroke-linejoin="round" stroke-linecap="butt" d="m49.988255 78.79222l0 -72.15748" fill-rule="evenodd"/><path fill="#000000" fill-opacity="0.0" d="m80.92264 44.82195l-29.228348 0" fill-rule="evenodd"/><path stroke="#ffffff" stroke-width="8.0" stroke-linejoin="round" stroke-linecap="butt" d="m80.92264 44.82195l-29.228348 0" fill-rule="evenodd"/><path fill="#000000" fill-opacity="0.0" d="m84.94951 80.29052l-69.921265 0" fill-rule="evenodd"/><path stroke="#ffffff" stroke-width="8.0" stroke-linejoin="round" stroke-linecap="butt" d="m84.94951 80.29052l-69.921265 0" fill-rule="evenodd"/><path fill="#000000" fill-opacity="0.0" d="m42.52894 8.520079l0 -2.4230046l7.448818 -2.2384126l7.448818 2.2384126l0 2.4230046z" fill-rule="evenodd"/><path stroke="#ffffff" stroke-width="4.0" stroke-linejoin="round" stroke-linecap="butt" d="m42.52894 8.520079l0 -2.4230046l7.448818 -2.2384126l7.448818 2.2384126l0 2.4230046z" fill-rule="evenodd"/></g></svg>
