<svg version="1.1" viewBox="0.0 0.0 100.0 100.0" fill="none" stroke="none" stroke-linecap="square" stroke-miterlimit="10" xmlns:xlink="http://www.w3.org/1999/xlink" xmlns="http://www.w3.org/2000/svg"><clipPath id="p.0"><path d="m0 0l100.0 0l0 100.0l-100.0 0l0 -100.0z" clip-rule="nonzero"/></clipPath><g clip-path="url(#p.0)"><path fill="#000000" fill-opacity="0.0" d="m0 0l100.0 0l0 100.0l-100.0 0z" fill-rule="evenodd"/><path fill="#000000" fill-opacity="0.0" d="m80.92264 11.959531l0 36.519688l0 0c0 20.169266 -13.854492 36.519684 -30.944881 36.519684c-17.090385 0 -30.944883 -16.350418 -30.944883 -36.519684l0 -36.519688z" fill-rule="evenodd"/><path stroke="#0000ff" stroke-width="8.0" stroke-linejoin="round" stroke-linecap="butt" d="m80.92264 11.959531l0 36.519688l0 0c0 20.169266 -13.854492 36.519684 -30.944881 36.519684c-17.090385 0 -30.944883 -16.350418 -30.944883 -36.519684l0 -36.519688z" fill-rule="evenodd"/><path fill="#000000" fill-opacity="0.0" d="m49.988255 13.282366l0 72.15748" fill-rule="evenodd"/><path stroke="#0000ff" stroke-width="8.0" stroke-linejoin="round" stroke-linecap="butt" d="m49.988255 13.282366l0 72.15748" fill-rule="evenodd"/><path fill="#000000" fill-opacity="0.0" d="m80.92264 47.25264l-29.228348 0" fill-rule="evenodd"/><path stroke="#0000ff" stroke-width="8.0" stroke-linejoin="round" stroke-linecap="butt" d="m80.92264 47.25264l-29.228348 0" fill-rule="evenodd"/><path fill="#000000" fill-opacity="0.0" d="m84.94951 11.784072l-69.921265 0" fill-rule="evenodd"/><path stroke="#0000ff" stroke-width="8.0" stroke-linejoin="round" stroke-linecap="butt" d="m84.94951 11.784072l-69.921265 0" fill-rule="evenodd"/><path fill="#000000" fill-opacity="0.0" d="m42.52894 83.55451l0 2.4230042l7.448818 2.238411l7.448818 -2.238411l0 -2.4230042z" fill-rule="evenodd"/><path stroke="#0000ff" stroke-width="4.0" stroke-linejoin="round" stroke-linecap="butt" d="m42.52894 83.55451l0 2.4230042l7.448818 2.238411l7.448818 -2.238411l0 -2.4230042z" fill-rule="evenodd"/></g></svg>
