<svg version="1.1" viewBox="0.0 0.0 100.0 100.0" fill="none" stroke="none" stroke-linecap="square" stroke-miterlimit="10" xmlns:xlink="http://www.w3.org/1999/xlink" xmlns="http://www.w3.org/2000/svg"><clipPath id="p.0"><path d="m0 0l100.0 0l0 100.0l-100.0 0l0 -100.0z" clip-rule="nonzero"/></clipPath><g clip-path="url(#p.0)"><path fill="#000000" fill-opacity="0.0" d="m0 0l100.0 0l0 100.0l-100.0 0z" fill-rule="evenodd"/><path fill="#000000" fill-opacity="0.0" d="m0.86614174 50.0l0 0c0 -27.135881 21.997976 -49.133858 49.133858 -49.133858l0 0c13.031109 0 25.528496 5.176588 34.74288 14.390974c9.214386 9.214387 14.390976 21.711777 14.390976 34.742886l0 0c0 27.13588 -21.997978 49.133858 -49.133858 49.133858l0 0c-27.135881 0 -49.133858 -21.997978 -49.133858 -49.133858z" fill-rule="evenodd"/><path fill="#000000" fill-opacity="0.0" d="m80.944885 20.03412l0 36.519684l0 0c0 20.169262 -13.8545 36.519688 -30.944885 36.519688c-17.090385 0 -30.944881 -16.350426 -30.944881 -36.519688l0 -36.519684z" fill-rule="evenodd"/><path stroke="#ffffff" stroke-width="8.0" stroke-linejoin="round" stroke-linecap="butt" d="m80.944885 20.03412l0 36.519684l0 0c0 20.169262 -13.8545 36.519688 -30.944885 36.519688c-17.090385 0 -30.944881 -16.350426 -30.944881 -36.519688l0 -36.519684z" fill-rule="evenodd"/><path fill="#000000" fill-opacity="0.0" d="m49.989502 21.356955l0 72.15748" fill-rule="evenodd"/><path stroke="#ffffff" stroke-width="8.0" stroke-linejoin="round" stroke-linecap="butt" d="m49.989502 21.356955l0 72.15748" fill-rule="evenodd"/><path fill="#000000" fill-opacity="0.0" d="m19.055119 55.327232l61.889767 0" fill-rule="evenodd"/><path stroke="#ffffff" stroke-width="8.0" stroke-linejoin="round" stroke-linecap="butt" d="m19.055119 55.327232l61.889767 0" fill-rule="evenodd"/><path fill="#000000" fill-opacity="0.0" d="m15.028248 19.858662l69.921265 0" fill-rule="evenodd"/><path stroke="#ffffff" stroke-width="8.0" stroke-linejoin="round" stroke-linecap="butt" d="m15.028248 19.858662l69.921265 0" fill-rule="evenodd"/><path fill="#000000" d="m57.44882 91.629105l0 2.4230042l-7.448818 2.238411l-7.448818 -2.238411l0 -2.4230042z" fill-rule="evenodd"/><path stroke="#ffffff" stroke-width="4.0" stroke-linejoin="round" stroke-linecap="butt" d="m57.44882 91.629105l0 2.4230042l-7.448818 2.238411l-7.448818 -2.238411l0 -2.4230042z" fill-rule="evenodd"/></g></svg>